<?xml version="1.0" standalone="no"?>
<!DOCTYPE svg PUBLIC "-//W3C//DTD SVG 20010904//EN"
 "http://www.w3.org/TR/2001/REC-SVG-20010904/DTD/svg10.dtd">
<svg version="1.0" xmlns="http://www.w3.org/2000/svg"
 width="200.000000pt" height="200.000000pt" viewBox="0 0 200.000000 200.000000"
 preserveAspectRatio="xMidYMid meet">

<g transform="translate(0.000000,200.000000) scale(0.100000,-0.100000)"
fill="#000000" stroke="none">
<path d="M658 1963 c-145 -129 -615 -568 -627 -584 -10 -15 -12 -27 -5 -44 5
-14 85 -106 177 -205 128 -137 173 -180 192 -180 36 0 695 613 695 647 0 15
-18 44 -48 76 -222 242 -306 327 -323 327 -10 0 -38 -17 -61 -37z"/>
<path d="M860 1981 c0 -4 68 -81 150 -169 121 -130 157 -162 183 -166 38 -7
437 84 440 99 1 8 -730 241 -765 244 -5 1 -8 -3 -8 -8z"/>
<path d="M1476 1635 c-162 -38 -235 -59 -249 -73 -19 -19 -18 -23 84 -467 88
-382 106 -449 124 -461 19 -13 46 -9 246 36 278 63 288 66 294 93 5 19 -168
797 -196 884 -10 32 -27 44 -57 42 -9 -1 -120 -25 -246 -54z"/>
<path d="M835 1249 c-376 -349 -363 -336 -345 -353 17 -16 790 -256 826 -256
17 0 24 6 24 19 0 25 -177 799 -190 829 -5 12 -15 22 -22 22 -7 -1 -139 -118
-293 -261z"/>
<path d="M20 1206 c0 -7 160 -707 171 -750 6 -21 14 -35 19 -30 4 5 35 99 69
209 43 138 60 209 57 230 -8 43 -316 375 -316 341z"/>
<path d="M411 806 c-16 -19 -151 -454 -151 -487 0 -15 7 -32 15 -39 20 -16
841 -270 875 -270 15 0 32 6 38 13 10 11 90 258 145 445 16 51 15 53 -6 76
-15 16 -64 36 -162 65 -77 23 -264 80 -416 127 -152 46 -288 84 -302 84 -13 0
-30 -6 -36 -14z"/>
<path d="M1680 599 c-226 -53 -238 -57 -254 -82 -18 -27 -139 -417 -132 -424
2 -3 11 -1 19 4 21 12 549 502 566 524 12 17 11 19 -10 18 -13 -1 -98 -19
-189 -40z"/>
</g>
</svg>
